<?xml version="1.0" standalone="no"?>
<!DOCTYPE svg PUBLIC "-//W3C//DTD SVG 20010904//EN"
 "http://www.w3.org/TR/2001/REC-SVG-20010904/DTD/svg10.dtd">
<svg version="1.0" xmlns="http://www.w3.org/2000/svg"
 width="180.000000pt" height="180.000000pt" viewBox="0 0 180.000000 180.000000"
 preserveAspectRatio="xMidYMid meet">

<g transform="translate(0.000000,180.000000) scale(0.100000,-0.100000)"
fill="#000000" stroke="none">
<path d="M160 1730 c-41 -14 -68 -32 -107 -75 l-53 -56 0 -149 0 -150 36 -39
c19 -22 55 -50 80 -61 l44 -22 89 94 c49 51 118 115 153 142 l65 48 -19 80
c-28 120 -55 161 -130 193 -49 20 -91 19 -158 -5z"/>
<path d="M1450 1728 c-57 -29 -83 -74 -105 -185 -9 -47 -15 -86 -13 -88 2 -1
23 -15 48 -30 25 -15 92 -75 148 -134 65 -66 110 -105 120 -103 30 6 92 54
122 96 30 39 30 42 30 166 0 121 -1 128 -28 171 -70 109 -219 159 -322 107z"/>
<path d="M602 913 c-71 -25 -146 -102 -197 -205 -34 -68 -45 -101 -45 -137 0
-79 48 -130 125 -131 58 0 97 29 138 101 37 66 49 82 110 137 35 31 37 36 37
95 0 75 -24 121 -75 143 -40 17 -38 17 -93 -3z"/>
<path d="M1100 919 c-45 -17 -60 -51 -63 -137 l-2 -79 52 -49 c30 -28 67 -77
86 -114 24 -47 43 -70 68 -82 111 -57 220 28 190 149 -18 69 -77 179 -124 230
-42 46 -125 93 -162 92 -11 0 -31 -5 -45 -10z"/>
<path d="M729 434 c-12 -14 -9 -20 20 -44 18 -16 53 -36 77 -45 35 -13 44 -22
44 -40 0 -18 -8 -26 -32 -33 -64 -20 -80 -20 -120 -6 -54 19 -61 9 -21 -27 47
-41 75 -45 139 -20 40 15 61 18 73 11 10 -5 38 -14 62 -19 50 -11 91 3 130 46
l24 26 -25 -8 c-52 -15 -93 -17 -136 -5 -67 19 -57 43 38 94 43 23 78 46 78
52 0 29 -27 34 -181 34 -132 0 -159 -3 -170 -16z"/>
<path d="M85 175 c-38 -31 -73 -61 -77 -68 -4 -6 -8 -33 -8 -59 l0 -48 900 0
900 0 0 48 c0 43 -4 52 -42 88 -24 23 -59 53 -79 68 l-37 27 -65 -36 c-88 -49
-199 -88 -342 -121 -97 -22 -152 -28 -286 -32 -313 -8 -491 33 -789 185 -3 2
-37 -22 -75 -52z"/>
</g>
</svg>
