<svg version="1.1" id="Layer_1" xmlns="http://www.w3.org/2000/svg" xmlns:xlink="http://www.w3.org/1999/xlink" x="0px" y="0px"
	 width="100%" viewBox="0 0 180 180" enable-background="new 0 0 180 180" xml:space="preserve">
<path fill="#000000" opacity="1.000000" stroke="none" 
	d="
M31.000000,1.000000 
	C73.020897,1.000000 115.041786,1.000000 157.542725,1.411559 
	C156.983566,2.546685 156.034439,3.652772 154.888367,3.922707 
	C151.328247,4.761231 147.693375,5.282368 143.949249,5.647474 
	C143.217377,4.970717 142.623749,4.573131 142.030121,4.175548 
	C141.884888,4.780866 141.739624,5.386181 141.590485,6.311491 
	C141.392883,7.412017 141.199173,8.192550 140.766022,8.943121 
	C140.526596,8.913161 140.059555,9.034661 139.726288,9.027462 
	C138.885330,9.624909 138.377625,10.229557 137.652954,10.941404 
	C137.196548,11.364987 137.220093,11.660187 137.192703,11.904119 
	C136.597443,12.592407 136.316071,13.310775 135.662872,14.012357 
	C134.925827,15.281119 134.560638,16.566668 134.036774,18.159092 
	C133.549698,20.668425 133.221283,22.870876 132.508179,25.041687 
	C130.706116,26.609772 129.471725,27.642326 127.043938,26.125719 
	C124.233253,24.369915 121.047325,22.386145 117.898148,22.144321 
	C104.275620,21.098249 90.610428,20.557035 76.952347,20.066259 
	C74.100189,19.963774 71.147240,20.605234 68.353867,21.336182 
	C61.540794,23.118971 54.794025,25.155136 48.035160,26.733353 
	C48.126179,24.420507 48.202595,22.463591 48.496483,20.230894 
	C47.103485,18.108700 48.754658,14.162810 44.546768,13.749510 
	C44.315960,13.659269 43.949940,13.993479 44.096958,13.700817 
	C43.840012,12.902710 43.436047,12.397264 43.037445,11.749197 
	C43.042809,11.606575 43.014568,11.322527 43.352699,11.155268 
	C43.434860,9.981806 43.178883,8.975602 42.670876,7.832968 
	C41.718555,7.507795 41.018272,7.319052 40.067425,7.044859 
	C39.641605,6.938605 39.466351,6.917803 39.225090,6.569393 
	C38.991653,6.094808 38.824219,5.947830 38.540901,5.644452 
	C37.654980,5.611103 36.884941,5.734154 35.955322,5.564415 
	C34.291698,4.490979 32.787663,3.710333 31.169579,2.598650 
	C31.037020,1.845075 31.018509,1.422538 31.000000,1.000000 
z"/>
<path fill="#D8D8E5" opacity="1.000000" stroke="none" 
	d="
M1.000000,147.000000 
	C1.000000,144.957687 1.000000,142.915359 1.412135,140.436401 
	C3.217484,139.274506 5.457121,138.851196 5.843889,137.766953 
	C6.966836,134.618896 9.024416,133.941406 11.946310,133.974533 
	C18.959642,134.054031 25.974461,134.002762 33.142441,134.299271 
	C39.158726,141.454834 45.784962,147.168411 54.993858,149.374496 
	C55.315094,150.815201 55.618660,151.911163 55.551044,153.012054 
	C54.418575,153.277100 53.219116,153.320877 52.966618,153.832230 
	C51.240421,157.328217 49.160606,160.808441 48.390976,164.540421 
	C48.079113,166.052658 50.768227,168.179276 52.082104,170.033188 
	C52.731358,170.949280 53.358620,171.880966 53.613808,172.813080 
	C42.144703,168.571915 31.057623,164.323257 19.717556,159.799438 
	C17.302874,159.049942 15.141183,158.575638 12.750214,157.958160 
	C12.345041,157.775879 12.169146,157.736740 11.933784,157.458923 
	C11.593451,156.978790 11.283958,156.933701 10.683302,157.073822 
	C10.243234,157.355209 10.065702,157.647751 9.566221,157.810791 
	C7.354402,154.475861 5.542004,151.219894 3.510923,148.106583 
	C3.092247,147.464844 1.858220,147.354996 1.000000,147.000000 
z"/>
<path fill="#2A2C39" opacity="1.000000" stroke="none" 
	d="
M19.970545,160.074600 
	C31.057623,164.323257 42.144703,168.571915 54.021275,172.976898 
	C58.130951,173.449982 61.451134,173.766739 64.921013,174.453522 
	C67.380272,175.210068 69.689842,175.596619 72.309753,176.102264 
	C73.058319,176.199371 73.496544,176.177383 74.302811,176.334808 
	C78.447205,176.675064 82.223549,176.835892 86.455429,177.097549 
	C91.274734,177.113388 95.638512,177.028397 100.447784,177.017014 
	C103.495544,176.865662 106.120491,176.786957 108.695740,176.387711 
	C115.808662,175.285034 122.900833,174.048431 130.387787,172.912750 
	C141.520050,168.376938 152.265732,163.793152 163.083282,159.540802 
	C165.771225,163.910095 168.387268,167.947968 170.541000,171.991089 
	C167.754013,171.998627 165.393753,171.739227 163.110886,172.049377 
	C154.130295,173.269516 145.036011,174.283707 138.000000,181.000000 
	C107.312439,181.000000 76.624878,181.000000 45.429516,180.642487 
	C44.161480,179.472672 43.532719,178.169586 42.620365,177.925201 
	C34.843548,175.842010 27.104578,173.154556 19.172915,172.264771 
	C13.254641,171.600861 7.067440,173.334198 1.000000,174.000000 
	C1.000000,173.250000 1.000000,172.500000 1.347225,171.340485 
	C2.751798,170.167816 3.770452,169.342880 4.873155,168.652100 
	C9.781972,165.577133 12.972713,159.469040 19.970545,160.074600 
z"/>
<path fill="#DFDFEA" opacity="1.000000" stroke="none" 
	d="
M181.000000,111.000000 
	C181.000000,119.354233 181.000000,127.708466 180.698792,136.690445 
	C179.937073,139.215332 179.476547,141.112473 179.010681,143.254120 
	C179.005325,143.498627 179.021317,143.987488 178.647644,143.982574 
	C177.246628,143.062210 176.199432,142.167923 175.195862,141.227081 
	C172.872757,139.049149 170.535004,134.981003 168.267197,135.024384 
	C162.562103,135.133530 156.870499,137.002579 151.217911,138.352219 
	C148.422775,139.019608 145.725769,140.097977 143.135132,140.691330 
	C145.198181,137.602264 147.110428,134.812271 149.287018,131.817490 
	C151.250015,128.989960 153.125122,126.462578 154.606201,123.722244 
	C156.861374,119.549683 158.843643,115.229622 161.372482,110.979004 
	C168.202545,110.407455 174.603043,108.303352 181.000000,111.000000 
z"/>
<path fill="#EDEDF5" opacity="1.000000" stroke="none" 
	d="
M1.000000,92.000000 
	C1.000000,87.643097 1.000000,83.286201 1.270406,78.780106 
	C2.989210,76.741089 4.437608,74.851265 6.213056,72.947685 
	C8.263883,72.206276 9.987659,71.478630 11.113339,71.003456 
	C11.486189,68.409180 11.772904,66.414230 12.310633,64.406357 
	C12.702832,64.483688 12.844020,64.573929 13.006270,64.968262 
	C13.278175,65.595177 13.529016,65.918015 13.779858,66.240852 
	C14.174223,65.457413 14.568589,64.673981 14.986998,63.682495 
	C15.011041,63.474449 15.027535,63.055912 15.410095,63.047295 
	C18.541029,60.365040 21.289402,57.691402 24.228546,54.984352 
	C24.620226,54.777313 24.851572,54.668228 25.472439,54.803757 
	C26.246040,56.838993 26.660557,58.694160 27.077667,60.552574 
	C29.414911,60.724812 31.264406,54.769371 33.850822,60.300926 
	C26.060368,69.793892 19.642675,79.559921 18.500053,92.012741 
	C12.359679,92.005463 6.679840,92.002731 1.000000,92.000000 
z"/>
<path fill="#E2E2ED" opacity="1.000000" stroke="none" 
	d="
M1.000000,124.000000 
	C1.000000,117.645599 1.000000,111.291206 1.433937,104.468399 
	C7.581718,104.999046 13.295564,105.998085 19.158617,107.332161 
	C22.222860,114.436363 25.137896,121.205528 27.654694,127.981339 
	C18.765579,124.938454 10.321317,121.582008 1.000000,124.000000 
z"/>
<path fill="#ECECF5" opacity="1.000000" stroke="none" 
	d="
M181.000000,81.000000 
	C181.000000,83.042320 181.000000,85.084633 180.694565,87.438187 
	C174.559692,90.911705 168.005447,88.170746 161.852158,89.647491 
	C159.950165,84.227333 158.578430,78.995941 156.357224,74.154266 
	C154.395325,69.877762 151.486313,66.035767 149.377304,62.007881 
	C151.342468,62.460785 153.150223,62.562134 154.468048,63.417931 
	C158.832596,66.252289 162.510818,70.322884 168.307007,70.394478 
	C168.837296,70.401031 169.254730,71.671471 169.896332,72.094482 
	C171.485809,73.142410 173.174866,74.039314 175.000259,75.350174 
	C176.111526,76.454063 177.088547,77.158752 177.970505,77.967140 
	C179.022858,78.931709 179.993790,79.985092 181.000000,81.000000 
z"/>
<path fill="#E4E4EE" opacity="1.000000" stroke="none" 
	d="
M162.013046,90.005707 
	C168.005447,88.170746 174.559692,90.911705 180.694565,87.874710 
	C181.000000,95.354256 181.000000,102.708504 181.000000,110.531380 
	C174.603043,108.303352 168.202545,110.407455 161.384644,110.542297 
	C161.315094,103.401085 161.664062,96.703392 162.013046,90.005707 
z"/>
<path fill="#3A3A4A" opacity="1.000000" stroke="none" 
	d="
M1.000000,174.497910 
	C7.067440,173.334198 13.254641,171.600861 19.172915,172.264771 
	C27.104578,173.154556 34.843548,175.842010 42.620365,177.925201 
	C43.532719,178.169586 44.161480,179.472672 44.960857,180.642487 
	C30.333303,181.000000 15.666606,181.000000 1.000000,181.000000 
	C1.000000,178.956543 1.000000,176.976181 1.000000,174.497910 
z"/>
<path fill="#3C3C4C" opacity="1.000000" stroke="none" 
	d="
M138.468658,181.000000 
	C145.036011,174.283707 154.130295,173.269516 163.110886,172.049377 
	C165.393753,171.739227 167.754013,171.998627 170.940125,171.999161 
	C174.867691,172.667984 177.933853,173.333984 181.000000,174.000000 
	C181.000000,176.312714 181.000000,178.625443 181.000000,181.000000 
	C166.979156,181.000000 152.958237,181.000000 138.468658,181.000000 
z"/>
<path fill="#DEDDE9" opacity="1.000000" stroke="none" 
	d="
M1.000000,124.466858 
	C10.321317,121.582008 18.765579,124.938454 27.942593,128.134186 
	C30.087496,129.852234 31.546263,131.424072 33.001053,133.248047 
	C32.994278,133.668198 32.991478,133.836227 32.988678,134.004272 
	C25.974461,134.002762 18.959642,134.054031 11.946310,133.974533 
	C9.024416,133.941406 6.966836,134.618896 5.843889,137.766953 
	C5.457121,138.851196 3.217484,139.274506 1.412135,139.999878 
	C1.000000,134.977905 1.000000,129.955811 1.000000,124.466858 
z"/>
<path fill="#E6E6F1" opacity="1.000000" stroke="none" 
	d="
M19.009409,106.997131 
	C13.295564,105.998085 7.581718,104.999046 1.433937,104.000000 
	C1.000000,100.307091 1.000000,96.614182 1.000000,92.460632 
	C6.679840,92.002731 12.359679,92.005463 18.458828,92.406639 
	C18.921896,97.535767 18.965652,102.266449 19.009409,106.997131 
z"/>
<path fill="#1E1E29" opacity="1.000000" stroke="none" 
	d="
M24.037777,55.017761 
	C21.289402,57.691402 18.541029,60.365040 15.382814,62.673962 
	C13.051674,60.765591 11.062629,59.297974 9.224857,57.660572 
	C6.428197,55.168823 3.736358,52.559429 1.000000,50.000000 
	C1.000000,49.555553 1.000000,49.111111 1.407304,48.332710 
	C3.711691,48.412209 5.602241,49.104939 7.507953,49.149521 
	C8.995316,49.184311 10.501515,48.413841 12.306080,48.153488 
	C16.421137,50.543102 20.229456,52.780434 24.037777,55.017761 
z"/>
<path fill="#262736" opacity="1.000000" stroke="none" 
	d="
M181.000000,173.571533 
	C177.933853,173.333984 174.867691,172.667984 171.402405,171.993896 
	C168.387268,167.947968 165.771225,163.910095 163.343323,159.280365 
	C165.360352,158.172501 167.189224,157.656479 168.897430,157.436798 
	C170.329193,158.097137 171.881638,158.461182 173.713898,158.964600 
	C175.025970,159.942825 176.058228,160.781647 177.146133,161.665695 
	C176.850998,161.974716 176.430801,162.414673 176.185089,163.153137 
	C176.962845,164.128281 177.566116,164.804886 178.130585,165.599060 
	C178.091812,165.716599 178.029221,165.956116 177.855148,166.043411 
	C177.610489,166.237427 177.455841,166.398788 177.483643,166.441544 
	C177.615768,166.644791 177.797592,166.815720 178.259216,167.126083 
	C179.371155,167.502670 180.185577,167.751328 181.000000,168.000000 
	C181.000000,169.714355 181.000000,171.428711 181.000000,173.571533 
M171.418350,161.483047 
	C171.418350,161.483047 171.523804,161.421524 171.418350,161.483047 
z"/>
<path fill="#040505" opacity="1.000000" stroke="none" 
	d="
M181.000000,80.531349 
	C179.993790,79.985092 179.022858,78.931709 177.970505,77.967140 
	C177.088547,77.158752 176.111526,76.454063 175.077850,74.959373 
	C173.346268,71.028229 171.713425,67.841164 170.109192,64.331116 
	C169.803787,60.375347 173.956604,62.130619 175.029510,60.308681 
	C175.609344,60.818390 176.064880,61.057503 176.520432,61.296616 
	C176.701248,60.557980 176.882065,59.819344 177.447632,58.984535 
	C178.223328,57.715912 178.614288,56.543453 178.991959,55.314411 
	C178.978668,55.257832 178.972534,55.141758 179.313538,55.165550 
	C180.103027,55.126232 180.551514,55.063114 181.000000,55.000000 
	C181.000000,63.354233 181.000000,71.708466 181.000000,80.531349 
z"/>
<path fill="#3D3C4E" opacity="1.000000" stroke="none" 
	d="
M1.000000,31.000000 
	C1.000000,26.643101 1.000000,22.286201 1.322119,17.428814 
	C1.970618,16.264412 2.296997,15.600495 2.759926,14.683127 
	C2.913623,14.238511 2.930770,14.047348 2.956837,13.901699 
	C2.965756,13.947211 2.873007,13.948420 3.256639,13.893414 
	C3.817129,13.195526 3.993986,12.552645 4.259660,11.880241 
	C4.348476,11.850719 4.427533,12.020395 4.770584,11.949701 
	C5.345593,11.905651 5.577551,11.932295 6.113900,11.993072 
	C6.622451,12.023241 6.826612,12.019279 7.255166,11.912119 
	C7.954192,11.177670 8.428824,10.546419 9.293882,9.629345 
	C9.652966,9.022470 9.621624,8.701418 9.765457,8.593794 
	C10.288996,8.518642 10.637361,8.230064 11.005644,7.720183 
	C11.025561,7.498880 10.904636,7.071252 11.162056,6.977015 
	C11.897492,6.615197 12.375509,6.347616 13.160593,6.030853 
	C13.670634,5.944737 13.873609,5.907803 14.099490,5.889201 
	C14.122397,5.907532 14.126005,5.966099 14.137508,6.269197 
	C14.523140,6.990324 14.897267,7.408354 15.479841,7.602101 
	C15.791398,6.559125 15.894507,5.740433 16.067652,4.912400 
	C16.137686,4.903059 16.196943,5.031344 16.465885,5.102458 
	C17.140345,5.773254 17.545860,6.372937 18.227329,7.007655 
	C18.658157,7.101483 18.846115,7.124735 18.958408,7.229270 
	C19.066177,7.329591 19.182777,7.616107 19.146688,7.647008 
	C17.833197,8.771671 16.634029,10.571653 15.149121,10.852845 
	C10.675802,11.699943 9.129676,13.855314 11.090962,18.396938 
	C4.665319,20.566996 5.979931,26.236654 4.627114,30.925442 
	C3.149842,30.966934 2.074921,30.983467 1.000000,31.000000 
z"/>
<path fill="#000000" opacity="1.000000" stroke="none" 
	d="
M160.000000,1.000000 
	C166.901276,1.000000 173.802567,1.000000 181.000000,1.000000 
	C181.000000,4.675392 181.000000,8.358521 180.635956,12.421579 
	C178.824066,12.521206 177.376190,12.240901 175.945068,11.977052 
	C175.961807,11.993508 176.008148,11.985431 175.942200,11.616441 
	C175.418015,11.160281 174.959778,11.073111 174.491547,10.983141 
	C174.481552,10.980342 174.470505,10.968103 174.398682,10.842645 
	C174.326859,10.717186 174.039047,10.689741 174.035919,10.681890 
	C174.032806,10.674040 174.033600,10.655227 174.253601,10.371199 
	C174.351303,9.881236 174.229019,9.675302 174.408051,9.263048 
	C174.372864,8.683092 174.036331,8.309454 173.617538,7.783101 
	C173.535278,7.630385 173.196045,7.703070 173.174561,7.642946 
	C173.153076,7.582823 173.032425,7.541045 173.454987,7.527571 
	C173.512634,6.983901 173.147690,6.453705 172.522583,5.925386 
	C171.620773,6.271075 170.979141,6.614888 169.985840,7.095479 
	C169.474640,7.426737 169.315094,7.621216 168.836395,7.689484 
	C168.311661,7.663702 168.106064,7.764131 167.742737,7.884826 
	C167.585007,7.905092 167.267044,7.897504 167.285461,7.531039 
	C166.228836,6.431606 165.153778,5.698637 164.031464,4.664200 
	C163.312103,4.214762 162.639999,4.066792 161.644073,3.950583 
	C160.880173,2.988230 160.440094,1.994116 160.000000,1.000000 
z"/>
<path fill="#444555" opacity="1.000000" stroke="none" 
	d="
M164.078735,4.965668 
	C165.153778,5.698637 166.228836,6.431606 166.930832,7.550488 
	C165.373505,8.289803 164.189209,8.643205 162.600403,8.996962 
	C160.947159,8.654114 159.630463,8.463484 158.460922,7.942502 
	C151.766083,4.960223 146.004959,8.417472 146.000183,15.480886 
	C145.999847,15.979921 146.000854,16.478956 145.609924,16.975037 
	C142.353378,16.490263 139.348572,16.154591 140.111664,11.675427 
	C140.483292,10.565400 140.744370,9.769240 141.005463,8.973082 
	C141.199173,8.192550 141.392883,7.412017 142.009003,6.301816 
	C142.983429,5.956979 143.535461,5.941813 144.087494,5.926646 
	C147.693375,5.282368 151.328247,4.761231 154.888367,3.922707 
	C156.034439,3.652772 156.983566,2.546685 158.011383,1.411559 
	C158.444443,1.000000 158.888901,1.000000 159.666672,1.000000 
	C160.440094,1.994116 160.880173,2.988230 161.820206,4.211066 
	C162.906342,4.615080 163.492538,4.790374 164.078735,4.965668 
M143.511581,8.461870 
	C143.511581,8.461870 143.531769,8.513097 143.511581,8.461870 
z"/>
<path fill="#21222E" opacity="1.000000" stroke="none" 
	d="
M181.000000,45.000000 
	C181.000000,45.750000 181.000000,46.500000 180.660690,47.675423 
	C177.616913,50.889210 175.199158,54.056110 172.138626,56.374386 
	C167.886276,59.595432 164.924454,58.286579 163.311020,52.865273 
	C166.415039,50.151230 169.210419,47.575363 172.351425,45.151901 
	C175.464691,45.202873 178.232346,45.101437 181.000000,45.000000 
z"/>
<path fill="#1D1E23" opacity="1.000000" stroke="none" 
	d="
M163.002396,53.003448 
	C164.924454,58.286579 167.886276,59.595432 172.138626,56.374386 
	C175.199158,54.056110 177.616913,50.889210 180.660690,48.050423 
	C181.000000,50.041668 181.000000,52.083332 181.000000,54.562500 
	C180.551514,55.063114 180.103027,55.126232 179.227692,54.968243 
	C178.540161,55.109802 178.279480,55.472466 177.983673,56.118320 
	C177.677994,56.871681 177.407440,57.341854 176.838898,57.938553 
	C175.995682,58.722752 175.450455,59.380417 174.905228,60.038086 
	C173.956604,62.130619 169.803787,60.375347 169.724747,64.296570 
	C163.946960,64.667923 161.634079,60.663250 159.337296,56.749004 
	C160.719101,55.360718 161.860748,54.182079 163.002396,53.003448 
z"/>
<path fill="#3F3E53" opacity="1.000000" stroke="none" 
	d="
M181.000000,19.000000 
	C181.000000,22.692909 181.000000,26.385818 180.611908,30.525921 
	C178.455368,30.692638 176.686935,30.412163 174.679535,29.905266 
	C173.605103,28.181728 172.769623,26.684607 171.951721,24.758709 
	C171.979141,20.886288 171.988953,17.442644 172.304016,14.134571 
	C174.590714,15.514468 176.572159,16.758797 178.757965,18.306574 
	C179.641541,18.740017 180.320770,18.870010 181.000000,19.000000 
z"/>
<path fill="#000000" opacity="1.000000" stroke="none" 
	d="
M12.853525,6.080036 
	C12.375509,6.347616 11.897492,6.615197 10.875310,6.903100 
	C9.296992,7.090004 8.262839,7.256585 6.962544,7.246734 
	C6.444778,7.366198 6.193154,7.662094 5.610918,8.152254 
	C4.996048,9.571144 4.711791,10.795770 4.427533,12.020395 
	C4.427533,12.020395 4.348476,11.850719 3.860196,11.947754 
	C3.205613,12.679332 3.039310,13.313875 2.873007,13.948420 
	C2.873007,13.948420 2.965756,13.947211 2.689530,13.579608 
	C1.942203,13.474669 1.471102,13.737334 1.000000,14.000000 
	C1.000000,9.725079 1.000000,5.450156 1.000000,1.000000 
	C7.353212,1.000000 13.707563,1.000000 20.762054,1.260056 
	C21.320200,1.703497 21.178204,1.886882 20.705666,2.006431 
	C19.621723,2.605565 18.868320,3.268536 18.089130,3.911475 
	C18.063341,3.891443 18.003466,3.917526 17.697123,4.007104 
	C16.992834,4.408237 16.594889,4.719790 16.196943,5.031344 
	C16.196943,5.031344 16.137686,4.903059 15.742228,4.943806 
	C14.913484,5.022525 14.480198,5.060497 13.772312,5.141757 
	C13.282984,5.483375 13.068254,5.781705 12.853525,6.080036 
z"/>
<path fill="#000000" opacity="1.000000" stroke="none" 
	d="
M176.010605,162.854614 
	C176.430801,162.414673 176.850998,161.974716 177.146133,161.665695 
	C176.058228,160.781647 175.025970,159.942825 173.543823,158.642136 
	C172.123459,157.128418 171.153030,156.076553 170.190094,154.663483 
	C172.611801,152.881851 175.025970,151.461426 176.370743,150.670212 
	C177.487457,148.273087 178.246368,146.643982 179.336884,144.978409 
	C180.112320,144.961288 180.556168,144.980637 181.000000,145.000000 
	C181.000000,151.021149 181.000000,157.042297 180.641449,163.459778 
	C178.858795,163.522278 177.434692,163.188446 176.010605,162.854614 
z"/>
<path fill="#000000" opacity="1.000000" stroke="none" 
	d="
M5.886005,72.961449 
	C4.437608,74.851265 2.989210,76.741089 1.270406,78.315453 
	C1.000000,71.645599 1.000000,65.291206 1.388923,58.493279 
	C3.832888,59.058407 5.887930,60.067059 7.678082,60.975327 
	C5.492758,63.824989 7.664098,64.466324 9.788025,65.462334 
	C8.472942,68.188782 7.179473,70.575119 5.886005,72.961449 
z"/>
<path fill="#252836" opacity="1.000000" stroke="none" 
	d="
M174.918503,30.131685 
	C176.686935,30.412163 178.455368,30.692638 180.611908,30.986557 
	C181.000000,35.356899 181.000000,39.713799 181.000000,44.535347 
	C178.232346,45.101437 175.464691,45.202873 172.502441,44.810959 
	C173.178055,39.588963 174.048279,34.860325 174.918503,30.131685 
z"/>
<path fill="#000000" opacity="1.000000" stroke="none" 
	d="
M1.000000,147.466858 
	C1.858220,147.354996 3.092247,147.464844 3.510923,148.106583 
	C5.542004,151.219894 7.354402,154.475861 9.769157,157.872177 
	C10.294045,158.063065 10.717042,158.093109 10.886776,158.325378 
	C11.368757,158.270966 11.681006,157.984283 11.993252,157.697586 
	C12.169146,157.736740 12.345041,157.775879 12.678680,158.309784 
	C11.352507,160.174774 9.943833,161.644333 8.341345,162.857956 
	C7.823425,163.250198 6.796506,162.970322 5.968087,162.712967 
	C5.516117,162.113907 5.098483,161.799759 4.680850,161.485626 
	C4.770632,161.988556 4.860414,162.491501 4.860075,163.207886 
	C4.606470,163.703842 4.367679,163.889496 3.744391,163.872528 
	C2.623467,163.511154 1.811733,163.255585 1.000000,163.000000 
	C1.000000,157.977905 1.000000,152.955811 1.000000,147.466858 
z"/>
<path fill="#262736" opacity="1.000000" stroke="none" 
	d="
M1.000000,31.454109 
	C2.074921,30.983467 3.149842,30.966934 4.985908,30.948797 
	C6.467126,30.933607 7.187200,30.920021 7.941251,31.368439 
	C8.321157,35.886948 8.667088,39.943459 8.629963,43.999489 
	C5.831273,42.999340 3.415636,41.999672 1.000000,41.000000 
	C1.000000,37.969406 1.000000,34.938812 1.000000,31.454109 
z"/>
<path fill="#111115" opacity="1.000000" stroke="none" 
	d="
M7.942973,61.075710 
	C5.887930,60.067059 3.832888,59.058407 1.388923,58.024879 
	C1.000000,55.629444 1.000000,53.258884 1.000000,50.444164 
	C3.736358,52.559429 6.428197,55.168823 9.224857,57.660572 
	C11.062629,59.297974 13.051674,60.765591 15.000255,62.682579 
	C15.027535,63.055912 15.011041,63.474449 14.729616,63.754200 
	C13.960530,64.244026 13.472868,64.454102 12.985207,64.664177 
	C12.844020,64.573929 12.702832,64.483688 12.058620,64.246498 
	C10.701182,63.705444 9.846769,63.311340 9.001125,62.489960 
	C8.922112,61.791626 8.834328,61.520576 8.615426,61.192886 
	C8.299944,61.083889 8.112413,61.048126 7.948290,61.029701 
	C7.974862,61.030445 7.942973,61.075710 7.942973,61.075710 
z"/>
<path fill="#1D1D24" opacity="1.000000" stroke="none" 
	d="
M6.002424,162.997894 
	C6.796506,162.970322 7.823425,163.250198 8.341345,162.857956 
	C9.943833,161.644333 11.352507,160.174774 12.907958,158.452942 
	C15.141183,158.575638 17.302874,159.049942 19.717556,159.799438 
	C12.972713,159.469040 9.781972,165.577133 4.873155,168.652100 
	C3.770452,169.342880 2.751798,170.167816 1.347225,170.965485 
	C1.000000,169.933334 1.000000,168.866653 1.317427,167.325592 
	C2.441095,165.893555 3.247337,164.935928 4.053580,163.978302 
	C4.367679,163.889496 4.606470,163.703842 5.123379,163.205444 
	C5.652010,162.992310 5.827217,162.995102 6.002424,162.997894 
z"/>
<path fill="#22222F" opacity="1.000000" stroke="none" 
	d="
M1.000000,41.437500 
	C3.415636,41.999672 5.831273,42.999340 8.884389,44.180237 
	C10.347693,45.574711 11.173519,46.787956 11.999344,48.001202 
	C10.501515,48.413841 8.995316,49.184311 7.507953,49.149521 
	C5.602241,49.104939 3.711691,48.412209 1.407304,47.999374 
	C1.000000,45.958332 1.000000,43.916668 1.000000,41.437500 
z"/>
<path fill="#3F3E4B" opacity="1.000000" stroke="none" 
	d="
M178.553604,18.003124 
	C176.572159,16.758797 174.590714,15.514468 172.148148,13.825185 
	C168.792999,11.919022 165.898956,10.457815 163.004929,8.996607 
	C164.189209,8.643205 165.373505,8.289803 166.912415,7.916953 
	C167.267044,7.897504 167.585007,7.905092 167.860596,8.081779 
	C168.475983,8.110875 168.815765,7.963282 169.155563,7.815692 
	C169.315094,7.621216 169.474640,7.426737 170.097992,7.451645 
	C171.439896,7.681711 172.317978,7.692390 173.196045,7.703070 
	C173.196045,7.703070 173.535278,7.630385 173.525787,8.217997 
	C173.713104,9.026860 173.909912,9.248113 174.106720,9.469366 
	C174.229019,9.675302 174.351303,9.881236 174.132370,10.359364 
	C173.791153,10.631557 173.685867,10.709877 173.685867,10.709877 
	C173.685867,10.709877 174.039047,10.689741 174.039047,10.689741 
	C174.039047,10.689741 174.326859,10.717186 174.236588,11.196354 
	C174.934372,12.115568 175.722412,12.555614 176.633575,13.047254 
	C176.906265,13.215933 176.988297,13.369165 176.941040,13.928219 
	C177.556000,14.860333 178.232666,15.422773 179.182144,16.115360 
	C179.969955,16.497007 180.484985,16.748507 181.000000,17.000004 
	C181.000000,17.000000 181.000000,17.500000 180.597992,17.644884 
	C179.648514,17.860886 179.101059,17.932005 178.553604,18.003124 
z"/>
<path fill="#696C76" opacity="1.000000" stroke="none" 
	d="
M30.562500,1.000000 
	C31.018509,1.422538 31.037020,1.845075 30.832050,2.702209 
	C30.379141,3.189058 30.149708,3.241310 29.494061,3.213130 
	C27.323605,3.026619 25.579363,2.920543 23.673248,2.483112 
	C23.674250,1.767838 23.837124,1.383919 24.000000,1.000000 
	C26.041666,1.000000 28.083334,1.000000 30.562500,1.000000 
z"/>
<path fill="#676364" opacity="1.000000" stroke="none" 
	d="
M181.000000,16.600006 
	C180.484985,16.748507 179.969955,16.497007 179.072754,15.825048 
	C178.127960,14.789243 177.565369,14.173898 177.002777,13.558549 
	C176.988297,13.369165 176.906265,13.215933 176.438812,12.815750 
	C176.056747,12.341969 175.992538,12.151282 175.928329,11.960595 
	C177.376190,12.240901 178.824066,12.521206 180.635956,12.900755 
	C181.000000,14.066669 181.000000,15.133339 181.000000,16.600006 
z"/>
<path fill="#DADAE6" opacity="1.000000" stroke="none" 
	d="
M179.016022,143.009613 
	C179.476547,141.112473 179.937073,139.215332 180.698792,137.159088 
	C181.000000,138.388885 181.000000,139.777786 180.797058,141.781845 
	C180.068100,142.601212 179.542053,142.805420 179.016022,143.009613 
z"/>
<path fill="#37373C" opacity="1.000000" stroke="none" 
	d="
M176.185089,163.153137 
	C177.434692,163.188446 178.858795,163.522278 180.641449,163.928055 
	C181.000000,164.444443 181.000000,164.888901 180.999496,165.902588 
	C180.998993,166.471832 180.942749,166.939163 180.560242,166.835968 
	C179.508301,166.315689 178.838837,165.898590 178.169373,165.481506 
	C177.566116,164.804886 176.962845,164.128281 176.185089,163.153137 
z"/>
<path fill="#979799" opacity="1.000000" stroke="none" 
	d="
M3.744390,163.872528 
	C3.247337,164.935928 2.441095,165.893555 1.317427,166.925598 
	C1.000000,165.933365 1.000000,164.866714 1.000000,163.400040 
	C1.811733,163.255585 2.623467,163.511154 3.744390,163.872528 
z"/>
<path fill="#ABABBE" opacity="1.000000" stroke="none" 
	d="
M23.625000,1.000000 
	C23.837124,1.383919 23.674250,1.767838 23.324665,2.530194 
	C22.437130,2.951930 21.736300,2.995229 21.048426,2.796473 
	C21.061380,2.554417 21.036205,2.070268 21.036205,2.070268 
	C21.178204,1.886882 21.320200,1.703497 21.231098,1.260056 
	C21.750000,1.000000 22.500000,1.000000 23.625000,1.000000 
z"/>
<path fill="#111115" opacity="1.000000" stroke="none" 
	d="
M178.130585,165.599060 
	C178.838837,165.898590 179.508301,166.315689 180.566025,166.840424 
	C180.954300,166.948074 181.000000,167.000000 181.000000,167.000000 
	C181.000000,167.000000 181.000000,167.500000 181.000000,167.750000 
	C180.185577,167.751328 179.371155,167.502670 178.277832,166.865707 
	C178.009018,166.303635 178.019119,166.129868 178.029221,165.956116 
	C178.029221,165.956116 178.091812,165.716599 178.130585,165.599060 
z"/>
<path fill="#F0F0F5" opacity="1.000000" stroke="none" 
	d="
M179.010681,143.254120 
	C179.542053,142.805420 180.068100,142.601212 180.797058,142.198517 
	C181.000000,142.750000 181.000000,143.500000 181.000000,144.625000 
	C180.556168,144.980637 180.112320,144.961288 179.356964,144.721817 
	C179.037415,144.330307 179.029358,144.158905 179.021317,143.987488 
	C179.021317,143.987488 179.005325,143.498627 179.010681,143.254120 
z"/>
<path fill="#87888E" opacity="1.000000" stroke="none" 
	d="
M2.623377,14.936580 
	C2.296997,15.600495 1.970618,16.264412 1.322119,16.964165 
	C1.000000,17.000000 1.000000,16.500000 1.244921,16.200855 
	C1.867687,15.580000 2.245533,15.258289 2.623377,14.936580 
z"/>
<path fill="#ABABBE" opacity="1.000000" stroke="none" 
	d="
M2.759926,14.683127 
	C2.245533,15.258289 1.867687,15.580000 1.244921,15.950855 
	C1.000000,15.555555 1.000000,15.111111 1.000000,14.333333 
	C1.471102,13.737334 1.942203,13.474669 2.680612,13.534096 
	C2.930770,14.047348 2.913623,14.238511 2.759926,14.683127 
z"/>
<path fill="#676364" opacity="1.000000" stroke="none" 
	d="
M178.757965,18.306576 
	C179.101059,17.932005 179.648514,17.860886 180.597992,17.894884 
	C181.000000,18.000000 181.000000,18.500000 181.000000,18.750000 
	C180.320770,18.870010 179.641541,18.740017 178.757965,18.306576 
z"/>
<path fill="#000000" opacity="1.000000" stroke="none" 
	d="
M181.000000,166.750000 
	C181.000000,167.000000 180.954300,166.948074 180.948517,166.943619 
	C180.942749,166.939163 180.998993,166.471832 180.999496,166.235916 
	C181.000000,166.000000 181.000000,166.500000 181.000000,166.750000 
z"/>
<path fill="#F1F0F8" opacity="1.000000" stroke="none" 
	d="
M159.097137,56.958656 
	C161.634079,60.663250 163.946960,64.667923 169.696136,64.619560 
	C171.713425,67.841164 173.346268,71.028229 174.901505,74.606094 
	C173.174866,74.039314 171.485809,73.142410 169.896332,72.094482 
	C169.254730,71.671471 168.837296,70.401031 168.307007,70.394478 
	C162.510818,70.322884 158.832596,66.252289 154.468048,63.417931 
	C153.150223,62.562134 151.342468,62.460785 149.379562,62.006981 
	C149.000000,62.000114 148.998169,62.004551 148.995453,61.677605 
	C148.326675,60.902214 147.660614,60.453770 146.693542,59.855370 
	C142.322266,55.833858 138.482773,51.678776 134.139038,48.143196 
	C120.346046,36.916378 104.528008,32.068581 86.679802,32.877766 
	C76.008774,33.361557 65.875114,35.369335 57.161274,41.455917 
	C49.070629,47.107201 41.692081,53.777962 34.000000,59.999847 
	C31.264406,54.769371 29.414911,60.724812 27.077667,60.552574 
	C26.660557,58.694160 26.246040,56.838993 25.634308,54.487526 
	C30.294363,49.331871 35.151634,44.672512 40.308380,39.899223 
	C41.743473,38.872692 42.879093,37.960091 44.386497,36.967842 
	C48.740868,34.585751 47.835552,30.656019 48.020557,27.089283 
	C54.794025,25.155136 61.540794,23.118971 68.353867,21.336182 
	C71.147240,20.605234 74.100189,19.963774 76.952347,20.066259 
	C90.610428,20.557035 104.275620,21.098249 117.898148,22.144321 
	C121.047325,22.386145 124.233253,24.369915 127.043938,26.125719 
	C129.471725,27.642326 130.706116,26.609772 132.480072,25.411564 
	C132.741791,26.851166 132.509842,27.897844 132.574295,28.925936 
	C132.989548,35.549335 137.767426,38.517056 143.113129,41.416576 
	C148.563400,46.780697 153.830276,51.869678 159.097137,56.958656 
z"/>
<path fill="#444356" opacity="1.000000" stroke="none" 
	d="
M29.920273,3.293563 
	C30.149708,3.241310 30.379141,3.189058 30.946100,3.033246 
	C32.787663,3.710333 34.291698,4.490979 35.928661,5.868412 
	C36.926655,6.243750 37.791721,6.022301 38.656788,5.800853 
	C38.824219,5.947830 38.991653,6.094808 39.218456,6.817892 
	C39.277824,7.393998 39.703568,7.653539 39.703568,7.653539 
	C39.703568,7.653539 40.201965,7.632133 40.494476,7.962913 
	C40.868885,9.585304 40.950783,10.876915 41.090584,12.351727 
	C41.148495,12.534928 41.187485,12.917216 40.889854,13.108359 
	C37.717873,15.544634 34.843525,17.789766 31.588001,19.980232 
	C23.437815,14.247388 8.232611,21.382973 7.907274,30.906437 
	C7.187200,30.920021 6.467126,30.933607 5.388259,30.923836 
	C5.979931,26.236654 4.665319,20.566996 11.090962,18.396938 
	C9.129676,13.855314 10.675802,11.699943 15.149121,10.852845 
	C16.634029,10.571653 17.833197,8.771671 19.146688,7.647008 
	C19.182777,7.616107 19.066177,7.329591 18.958408,7.229270 
	C18.846115,7.124735 18.658157,7.101483 18.241510,6.624211 
	C17.987650,5.442996 17.995558,4.680261 18.003466,3.917526 
	C18.003466,3.917526 18.063341,3.891443 18.642122,3.900045 
	C19.715546,4.452999 20.210186,4.997351 20.753899,5.612257 
	C21.085478,5.822398 21.379583,5.931135 22.034836,6.003176 
	C23.172113,5.709818 23.959837,5.422306 25.146183,5.099633 
	C27.003292,4.474169 28.461782,3.883866 29.920273,3.293563 
z"/>
<path fill="#333442" opacity="1.000000" stroke="none" 
	d="
M142.929703,41.141438 
	C137.767426,38.517056 132.989548,35.549335 132.574295,28.925936 
	C132.509842,27.897844 132.741791,26.851166 132.864777,25.443207 
	C133.221283,22.870876 133.549698,20.668425 134.377228,18.121609 
	C135.323120,16.802059 135.769897,15.826870 136.488998,14.885645 
	C137.126892,14.942692 137.492447,14.965775 138.043549,14.921017 
	C138.319962,14.761744 138.502411,14.611566 138.487350,14.588103 
	C138.357773,14.386151 138.192535,14.207075 137.942734,13.829093 
	C137.712250,13.357989 137.492157,13.190357 137.206589,12.818037 
	C137.319519,12.312705 137.413071,12.123452 137.506607,11.934200 
	C137.220093,11.660187 137.196548,11.364987 137.883835,11.000580 
	C138.331680,10.952555 138.803772,11.000009 138.947098,11.254604 
	C139.393982,11.669231 139.697556,11.829263 140.001114,11.989294 
	C139.348572,16.154591 142.353378,16.490263 145.967392,16.988695 
	C147.808960,17.726988 148.901733,18.448669 149.833984,19.458344 
	C144.076675,25.822483 143.974243,33.630436 142.929703,41.141438 
z"/>
<path fill="#2F3040" opacity="1.000000" stroke="none" 
	d="
M31.969173,20.034899 
	C34.843525,17.789766 37.717873,15.544634 41.161343,13.274877 
	C42.470287,13.497993 43.210114,13.745736 43.949940,13.993479 
	C43.949940,13.993479 44.315960,13.659269 44.567627,14.070965 
	C44.190899,15.002800 43.562508,15.522938 42.723755,16.209415 
	C42.956848,16.925072 43.400299,17.474386 44.159142,18.113344 
	C45.000362,18.796347 45.526192,19.389706 45.666794,20.068707 
	C45.024250,22.444675 44.690308,24.729580 44.527832,27.026615 
	C44.291889,30.362316 44.179688,33.706768 44.014713,37.047489 
	C42.879093,37.960091 41.743473,38.872692 40.156704,39.549767 
	C37.126762,32.887794 34.547966,26.461348 31.969173,20.034899 
z"/>
<path fill="#292A32" opacity="1.000000" stroke="none" 
	d="
M44.386497,36.967842 
	C44.179688,33.706768 44.291889,30.362316 44.527832,27.026615 
	C44.690308,24.729580 45.024250,22.444675 45.706413,20.189270 
	C46.131264,20.224194 46.025387,20.454811 46.036125,20.768089 
	C46.195045,21.440302 46.343227,21.799238 46.491409,22.158173 
	C46.808270,21.712049 47.125130,21.265926 47.558655,20.713085 
	C47.871643,20.543280 48.072872,20.510048 48.279015,20.506676 
	C48.202595,22.463591 48.126179,24.420507 48.035160,26.733353 
	C47.835552,30.656019 48.740868,34.585751 44.386497,36.967842 
z"/>
<path fill="#696C76" opacity="1.000000" stroke="none" 
	d="
M46.025387,20.454811 
	C46.025387,20.454811 46.131264,20.224194 46.091644,20.103628 
	C45.526192,19.389706 45.000362,18.796347 44.287155,17.814663 
	C44.542114,17.066521 44.984455,16.706705 45.800285,16.043076 
	C44.424294,16.043076 43.679203,16.043076 42.934113,16.043076 
	C43.562508,15.522938 44.190899,15.002800 44.798435,14.161205 
	C48.754658,14.162810 47.103485,18.108700 48.496483,20.230894 
	C48.072872,20.510048 47.871643,20.543280 47.210411,20.592861 
	C46.505463,20.537842 46.265427,20.496326 46.025387,20.454811 
z"/>
<path fill="#05060E" opacity="1.000000" stroke="none" 
	d="
M41.032677,12.168527 
	C40.950783,10.876915 40.868885,9.585304 40.586964,7.852365 
	C40.386936,7.411037 40.317986,7.130310 40.317986,7.130310 
	C41.018272,7.319052 41.718555,7.507795 42.353401,8.018288 
	C41.831688,8.564998 41.375420,8.789957 40.919151,9.014918 
	C41.617622,9.784122 42.316093,10.553325 43.014568,11.322527 
	C43.014568,11.322527 43.042809,11.606575 42.700523,11.763117 
	C41.916386,12.002614 41.474529,12.085570 41.032677,12.168527 
z"/>
<path fill="#696C76" opacity="1.000000" stroke="none" 
	d="
M136.216675,14.851679 
	C135.769897,15.826870 135.323120,16.802059 134.535889,17.814732 
	C134.560638,16.566668 134.925827,15.281119 135.631073,14.005959 
	C135.971115,14.016345 135.960556,13.952693 136.046570,14.171174 
	C136.132599,14.389655 136.216675,14.851678 136.216675,14.851679 
z"/>
<path fill="#C0B5B8" opacity="1.000000" stroke="none" 
	d="
M43.352699,11.155269 
	C42.316093,10.553325 41.617622,9.784122 40.919151,9.014918 
	C41.375420,8.789957 41.831688,8.564998 42.605431,8.154717 
	C43.178883,8.975602 43.434860,9.981806 43.352699,11.155269 
z"/>
<path fill="#EEEFF5" opacity="1.000000" stroke="none" 
	d="
M140.111664,11.675426 
	C139.697556,11.829263 139.393982,11.669231 138.995743,10.950182 
	C139.287231,9.938995 139.673386,9.486828 140.059555,9.034660 
	C140.059555,9.034661 140.526596,8.913161 140.766022,8.943121 
	C140.744370,9.769240 140.483292,10.565400 140.111664,11.675426 
z"/>
<path fill="#22222F" opacity="1.000000" stroke="none" 
	d="
M38.540901,5.644452 
	C37.791721,6.022301 36.926655,6.243750 36.088249,6.161201 
	C36.884941,5.734154 37.654980,5.611103 38.540901,5.644452 
z"/>
<path fill="#333135" opacity="1.000000" stroke="none" 
	d="
M143.949249,5.647475 
	C143.535461,5.941813 142.983429,5.956979 142.012878,5.981821 
	C141.739624,5.386181 141.884888,4.780866 142.030121,4.175548 
	C142.623749,4.573131 143.217377,4.970717 143.949249,5.647475 
z"/>
<path fill="#E6E6F1" opacity="1.000000" stroke="none" 
	d="
M41.090584,12.351727 
	C41.474529,12.085570 41.916386,12.002614 42.695160,11.905739 
	C43.436047,12.397264 43.840012,12.902710 44.096958,13.700817 
	C43.210114,13.745736 42.470287,13.497993 41.458973,13.083734 
	C41.187485,12.917216 41.148495,12.534928 41.090584,12.351727 
z"/>
<path fill="#87888E" opacity="1.000000" stroke="none" 
	d="
M137.192703,11.904119 
	C137.413071,12.123452 137.319519,12.312705 137.086151,13.066931 
	C136.617752,13.738834 136.289154,13.845765 135.960556,13.952694 
	C135.960556,13.952693 135.971115,14.016345 136.002914,14.022743 
	C136.316071,13.310775 136.597443,12.592407 137.192703,11.904119 
z"/>
<path fill="#333135" opacity="1.000000" stroke="none" 
	d="
M139.726288,9.027462 
	C139.673386,9.486828 139.287231,9.938995 138.852417,10.695585 
	C138.803772,11.000009 138.331680,10.952555 138.100800,10.893379 
	C138.377625,10.229557 138.885330,9.624909 139.726288,9.027462 
z"/>
<path fill="#1E1E29" opacity="1.000000" stroke="none" 
	d="
M40.067425,7.044859 
	C40.317986,7.130310 40.386936,7.411037 40.294449,7.521585 
	C40.201965,7.632133 39.703568,7.653539 39.703568,7.653539 
	C39.703568,7.653539 39.277824,7.393998 39.284458,7.145499 
	C39.466351,6.917803 39.641605,6.938605 40.067425,7.044859 
z"/>
<path fill="#FCFCFC" opacity="1.000000" stroke="none" 
	d="
M33.850822,60.300926 
	C41.692081,53.777962 49.070629,47.107201 57.161274,41.455917 
	C65.875114,35.369335 76.008774,33.361557 86.679802,32.877766 
	C104.528008,32.068581 120.346046,36.916378 134.139038,48.143196 
	C138.482773,51.678776 142.322266,55.833858 146.817230,60.119514 
	C147.827347,61.023930 148.412766,61.514240 148.998169,62.004551 
	C148.998169,62.004551 149.000000,62.000114 148.997742,62.001015 
	C151.486313,66.035767 154.395325,69.877762 156.357224,74.154266 
	C158.578430,78.995941 159.950165,84.227333 161.852158,89.647491 
	C161.664062,96.703392 161.315094,103.401085 160.953949,110.535484 
	C158.843643,115.229622 156.861374,119.549683 154.606201,123.722244 
	C153.125122,126.462578 151.250015,128.989960 148.784714,131.809479 
	C146.355103,131.868912 144.692139,131.731567 143.047638,131.333237 
	C143.236450,130.771042 143.406784,130.469833 143.908325,129.969818 
	C145.228287,127.189285 147.726227,124.633293 144.378479,121.582840 
	C143.870209,119.457642 143.355850,117.727127 142.818604,115.640686 
	C140.242081,110.794334 137.688431,106.303902 135.105133,101.865219 
	C135.075455,101.916962 135.185043,101.869835 135.068146,101.539734 
	C131.999039,95.932129 127.826279,92.086914 121.588356,90.083282 
	C110.147461,86.177963 104.423546,90.170425 104.184723,101.840340 
	C104.157700,103.160767 104.123314,104.481407 104.123169,105.801949 
	C104.122505,111.765846 105.733650,113.728874 111.919624,115.490631 
	C112.346893,116.164742 112.692184,116.576645 112.944626,117.354401 
	C116.598137,123.731697 120.344505,129.743149 124.074478,136.189667 
	C124.395462,141.107895 124.732841,145.591080 125.050888,150.445343 
	C122.369537,155.212250 119.707520,159.608047 116.828178,164.262924 
	C114.406784,165.690659 112.202721,166.859329 109.583389,168.073456 
	C95.086487,169.108124 80.986351,170.737610 66.883270,166.630722 
	C65.484940,165.565445 64.247520,164.770905 62.858318,163.678177 
	C60.445107,159.922363 58.183666,156.464737 55.922226,153.007126 
	C55.618660,151.911163 55.315094,150.815201 55.000919,148.940521 
	C55.624592,144.016388 56.258877,139.870956 57.104301,135.474808 
	C61.184528,129.374115 65.053619,123.524155 69.175842,117.589371 
	C69.919334,116.999298 70.409714,116.494057 71.157928,116.003433 
	C71.640648,115.776474 71.865532,115.534897 72.396622,115.179878 
	C73.814270,114.051003 74.925713,113.035568 76.020088,112.008224 
	C76.003029,111.996315 76.018585,112.034576 76.384216,111.865738 
	C78.492630,105.114555 79.964035,98.557861 74.830139,92.312408 
	C70.699295,87.465477 66.053177,87.383522 60.741066,89.602119 
	C48.094646,94.883888 42.099129,105.621529 38.099373,117.637825 
	C36.861412,121.356979 37.940762,125.847473 37.704689,130.087006 
	C37.999268,131.050522 38.548298,131.911880 38.885571,133.065338 
	C36.784214,133.236938 34.894623,133.116440 33.005028,132.995926 
	C31.546263,131.424072 30.087496,129.852234 28.340830,128.127533 
	C25.137896,121.205528 22.222860,114.436363 19.158617,107.332161 
	C18.965652,102.266449 18.921896,97.535767 18.919365,92.411179 
	C19.642675,79.559921 26.060368,69.793892 33.850822,60.300926 
M108.070076,154.326630 
	C105.716888,154.584229 103.363708,154.841812 100.386467,154.782333 
	C99.254814,154.551804 98.123161,154.321289 96.364357,153.772522 
	C94.960594,153.160843 93.556831,152.549164 92.065475,151.203888 
	C93.213867,150.052597 94.216446,148.685486 95.539001,147.792007 
	C98.992386,145.459000 102.585808,143.333267 106.913002,141.148697 
	C107.634262,140.270081 108.355522,139.391464 109.076790,138.512863 
	C107.610924,137.635788 106.162552,136.035873 104.676331,135.999893 
	C95.588318,135.779938 86.489624,135.822083 77.400162,136.027634 
	C75.981926,136.059708 74.592712,137.375076 73.190079,138.097031 
	C74.084053,139.444077 74.978027,140.791107 76.251312,142.705795 
	C78.692154,143.984024 81.044281,145.490631 83.596542,146.482025 
	C86.710350,147.691544 88.409126,149.558823 87.551483,153.655228 
	C81.177147,155.488052 74.785919,156.100754 67.573257,152.532410 
	C71.732376,159.909592 76.776085,162.633865 82.028351,160.065475 
	C87.321884,157.476898 92.108879,156.366119 97.805511,160.055405 
	C100.529388,159.778656 103.253265,159.501907 106.606018,159.100235 
	C107.420525,158.440048 108.235031,157.779861 109.724777,156.927979 
	C111.105835,155.961380 112.486893,154.994781 113.867950,154.028198 
	C113.400612,153.499100 112.933273,152.970001 112.465935,152.440903 
	C111.233170,153.053696 110.000397,153.666473 108.070076,154.326630 
z"/>
<path fill="#D4D5E5" opacity="1.000000" stroke="none" 
	d="
M67.044174,166.901459 
	C80.986351,170.737610 95.086487,169.108124 109.623367,168.416687 
	C111.206581,170.203995 112.334557,171.693542 113.960945,173.841248 
	C110.407196,174.270584 107.361176,174.485916 104.384827,175.061493 
	C102.859695,175.356415 101.459137,176.295456 100.002281,176.943405 
	C95.638512,177.028397 91.274734,177.113388 86.362564,176.707321 
	C81.854370,176.195969 77.894569,176.175674 73.934769,176.155396 
	C73.496544,176.177383 73.058319,176.199371 72.220360,175.718094 
	C69.470856,174.837708 67.121086,174.460617 64.771317,174.083511 
	C61.451134,173.766739 58.130951,173.449982 54.403301,172.969391 
	C53.358620,171.880966 52.731358,170.949280 52.082104,170.033188 
	C50.768227,168.179276 48.079113,166.052658 48.390976,164.540421 
	C49.160606,160.808441 51.240421,157.328217 52.966618,153.832230 
	C53.219116,153.320877 54.418575,153.277100 55.551044,153.012054 
	C58.183666,156.464737 60.445107,159.922363 62.855179,164.056000 
	C63.490849,166.018539 63.977879,167.305054 64.464912,168.591583 
	C65.324669,168.028214 66.184425,167.464844 67.044174,166.901459 
z"/>
<path fill="#EEEFF5" opacity="1.000000" stroke="none" 
	d="
M56.893162,135.725540 
	C56.258877,139.870956 55.624592,144.016388 54.983246,148.595779 
	C45.784962,147.168411 39.158726,141.454834 33.142441,134.299271 
	C32.991478,133.836227 32.994278,133.668198 33.001053,133.248047 
	C34.894623,133.116440 36.784214,133.236938 39.206043,133.221909 
	C44.666409,139.102234 50.758934,137.549423 56.893162,135.725540 
z"/>
<path fill="#696C76" opacity="1.000000" stroke="none" 
	d="
M11.933786,157.458923 
	C11.681006,157.984283 11.368757,158.270966 10.986238,158.082611 
	C10.925924,157.433380 10.935883,157.259186 10.945841,157.084976 
	C11.283958,156.933701 11.593451,156.978790 11.933786,157.458923 
z"/>
<path fill="#1D1D24" opacity="1.000000" stroke="none" 
	d="
M10.683302,157.073822 
	C10.935883,157.259186 10.925924,157.433380 10.816504,157.850342 
	C10.717042,158.093109 10.294045,158.063065 10.091108,158.001678 
	C10.065702,157.647751 10.243234,157.355209 10.683302,157.073822 
z"/>
<path fill="#DADAE6" opacity="1.000000" stroke="none" 
	d="
M117.045502,164.003845 
	C119.707520,159.608047 122.369537,155.212250 125.420151,150.416534 
	C131.533951,147.007858 137.259140,143.999115 142.984344,140.990387 
	C145.725769,140.097977 148.422775,139.019608 151.217911,138.352219 
	C156.870499,137.002579 162.562103,135.133530 168.267197,135.024384 
	C170.535004,134.981003 172.872757,139.049149 175.195862,141.227081 
	C176.199432,142.167923 177.246628,143.062210 178.647644,143.982574 
	C179.029358,144.158905 179.037415,144.330307 179.025375,144.758286 
	C178.246368,146.643982 177.487457,148.273087 176.370743,150.670212 
	C175.025970,151.461426 172.611801,152.881851 169.835999,154.733459 
	C169.322296,155.823257 169.170197,156.481857 169.018097,157.140472 
	C167.189224,157.656479 165.360352,158.172501 163.271439,158.948944 
	C152.265732,163.793152 141.520050,168.376938 130.386276,172.537720 
	C128.163467,168.026596 126.328758,163.938477 124.673706,160.250641 
	C122.560669,161.290298 119.803085,162.647079 117.045502,164.003845 
z"/>
<path fill="#D8D8E7" opacity="1.000000" stroke="none" 
	d="
M116.828171,164.262924 
	C119.803085,162.647079 122.560669,161.290298 124.673706,160.250641 
	C126.328758,163.938477 128.163467,168.026596 129.999695,172.489761 
	C122.900833,174.048431 115.808662,175.285034 108.695740,176.387711 
	C106.120491,176.786957 103.495544,176.865662 100.447784,177.017014 
	C101.459137,176.295456 102.859695,175.356415 104.384827,175.061493 
	C107.361176,174.485916 110.407196,174.270584 113.960945,173.841248 
	C112.334557,171.693542 111.206581,170.203995 110.038628,168.371216 
	C112.202721,166.859329 114.406784,165.690659 116.828171,164.262924 
z"/>
<path fill="#D8D8E7" opacity="1.000000" stroke="none" 
	d="
M74.302811,176.334808 
	C77.894569,176.175674 81.854370,176.195969 85.907028,176.606491 
	C82.223549,176.835892 78.447205,176.675064 74.302811,176.334808 
z"/>
<path fill="#D8D8E7" opacity="1.000000" stroke="none" 
	d="
M64.921013,174.453522 
	C67.121086,174.460617 69.470856,174.837708 71.910019,175.598999 
	C69.689842,175.596619 67.380272,175.210068 64.921013,174.453522 
z"/>
<path fill="#F0F0F5" opacity="1.000000" stroke="none" 
	d="
M143.135132,140.691315 
	C137.259140,143.999115 131.533951,147.007858 125.439484,150.045425 
	C124.732841,145.591080 124.395462,141.107895 124.485794,136.242920 
	C129.424438,136.784439 134.020462,139.159668 138.545090,135.094208 
	C139.602798,134.516510 140.353729,133.924988 141.336395,133.205643 
	C142.055176,132.583298 142.542175,132.088760 143.029175,131.594223 
	C144.692139,131.731567 146.355103,131.868912 148.520370,132.014282 
	C147.110428,134.812271 145.198181,137.602264 143.135132,140.691315 
z"/>
<path fill="#15161F" opacity="1.000000" stroke="none" 
	d="
M31.588001,19.980232 
	C34.547966,26.461348 37.126762,32.887794 39.857231,39.663696 
	C35.151634,44.672512 30.294363,49.331871 25.275223,54.307457 
	C24.851572,54.668228 24.620226,54.777313 24.228546,54.984356 
	C20.229456,52.780434 16.421137,50.543102 12.306081,48.153488 
	C11.173519,46.787956 10.347693,45.574711 9.267443,44.180717 
	C8.667088,39.943459 8.321157,35.886948 7.941251,31.368439 
	C8.232611,21.382973 23.437815,14.247388 31.588001,19.980232 
z"/>
<path fill="#F8F8F8" opacity="1.000000" stroke="none" 
	d="
M8.992355,62.917236 
	C9.846769,63.311340 10.701182,63.705444 11.807608,64.259415 
	C11.772904,66.414230 11.486189,68.409180 11.113339,71.003456 
	C9.987659,71.478630 8.263883,72.206276 6.213055,72.947685 
	C7.179473,70.575119 8.472942,68.188782 9.714008,65.167328 
	C9.438521,63.993877 9.215439,63.455555 8.992355,62.917236 
z"/>
<path fill="#F8F8F8" opacity="1.000000" stroke="none" 
	d="
M13.006269,64.968262 
	C13.472868,64.454102 13.960530,64.244026 14.705574,63.962246 
	C14.568589,64.673981 14.174223,65.457413 13.779858,66.240852 
	C13.529016,65.918015 13.278175,65.595177 13.006269,64.968262 
z"/>
<path fill="#2A2C39" opacity="1.000000" stroke="none" 
	d="
M168.897430,157.436798 
	C169.170197,156.481857 169.322296,155.823257 169.828491,155.094666 
	C171.153030,156.076553 172.123459,157.128418 173.263977,158.502747 
	C171.881638,158.461182 170.329193,158.097137 168.897430,157.436798 
z"/>
<path fill="#37373C" opacity="1.000000" stroke="none" 
	d="
M177.855148,166.043411 
	C178.019119,166.129868 178.009018,166.303635 177.980316,166.737778 
	C177.797592,166.815720 177.615768,166.644791 177.483643,166.441544 
	C177.455841,166.398788 177.610489,166.237427 177.855148,166.043411 
z"/>
<path fill="#2A2C39" opacity="1.000000" stroke="none" 
	d="
M171.471069,161.452286 
	C171.523804,161.421524 171.418350,161.483047 171.471069,161.452286 
z"/>
<path fill="#51505B" opacity="1.000000" stroke="none" 
	d="
M175.029510,60.308678 
	C175.450455,59.380417 175.995682,58.722752 176.802734,58.256218 
	C177.063980,58.658474 177.063431,58.869587 177.062881,59.080704 
	C176.882065,59.819344 176.701248,60.557980 176.520432,61.296616 
	C176.064880,61.057503 175.609344,60.818390 175.029510,60.308678 
z"/>
<path fill="#37373C" opacity="1.000000" stroke="none" 
	d="
M177.447632,58.984535 
	C177.063431,58.869587 177.063980,58.658474 177.100708,58.129692 
	C177.407440,57.341854 177.677994,56.871681 178.264954,56.076332 
	C178.722641,55.624428 178.863937,55.497711 179.005249,55.370991 
	C178.614288,56.543453 178.223328,57.715912 177.447632,58.984535 
z"/>
<path fill="#000000" opacity="1.000000" stroke="none" 
	d="
M178.991959,55.314411 
	C178.863937,55.497711 178.722641,55.624428 178.300064,55.793137 
	C178.279480,55.472466 178.540161,55.109802 178.886688,54.944450 
	C178.972534,55.141758 178.978668,55.257832 178.991959,55.314411 
z"/>
<path fill="#F8F8F8" opacity="1.000000" stroke="none" 
	d="
M7.228687,7.423165 
	C8.262839,7.256585 9.296992,7.090004 10.617890,6.997338 
	C10.904636,7.071252 11.025561,7.498880 10.755123,7.731417 
	C10.186550,8.102757 9.888415,8.241562 9.590281,8.380366 
	C9.621624,8.701418 9.652966,9.022470 9.231613,9.311620 
	C8.173097,9.808574 7.567273,10.337430 6.726876,10.932182 
	C6.492302,10.998079 6.022626,11.127852 5.989403,10.805937 
	C5.976956,10.053092 5.997732,9.622164 6.280300,9.066286 
	C6.770957,8.435280 6.999822,7.929223 7.228687,7.423165 
z"/>
<path fill="#333135" opacity="1.000000" stroke="none" 
	d="
M6.961450,10.866285 
	C7.567273,10.337430 8.173097,9.808574 8.841188,9.597443 
	C8.428824,10.546419 7.954192,11.177670 7.236106,11.624563 
	C6.982251,11.248899 6.971850,11.057592 6.961450,10.866285 
z"/>
<path fill="#C0B5B8" opacity="1.000000" stroke="none" 
	d="
M6.018509,9.191235 
	C5.997732,9.622164 5.976956,10.053092 5.970425,11.022313 
	C5.984671,11.560605 5.809510,11.958939 5.809510,11.958939 
	C5.577551,11.932295 5.345593,11.905651 4.770584,11.949701 
	C4.711791,10.795770 4.996048,9.571144 5.613163,8.461275 
	C5.970184,8.781098 5.994346,8.986167 6.018509,9.191235 
z"/>
<path fill="#87888E" opacity="1.000000" stroke="none" 
	d="
M17.697123,4.007104 
	C17.995558,4.680261 17.987650,5.442996 17.965557,6.589175 
	C17.545860,6.372937 17.140345,5.773254 16.465885,5.102458 
	C16.594889,4.719790 16.992834,4.408237 17.697123,4.007104 
z"/>
<path fill="#696C76" opacity="1.000000" stroke="none" 
	d="
M14.046912,5.098470 
	C14.480198,5.060497 14.913484,5.022525 15.672194,4.953146 
	C15.894507,5.740433 15.791398,6.559125 15.422379,7.314181 
	C14.812982,6.822397 14.469494,6.394248 14.126005,5.966099 
	C14.126005,5.966099 14.122397,5.907532 14.075087,5.697221 
	C14.027777,5.486909 14.046912,5.098470 14.046912,5.098470 
z"/>
<path fill="#4A4A53" opacity="1.000000" stroke="none" 
	d="
M14.137508,6.269197 
	C14.469494,6.394248 14.812982,6.822397 15.213932,7.538465 
	C14.897267,7.408354 14.523140,6.990324 14.137508,6.269197 
z"/>
<path fill="#ABABBE" opacity="1.000000" stroke="none" 
	d="
M3.256640,13.893414 
	C3.039310,13.313875 3.205613,12.679332 3.771380,11.977276 
	C3.993986,12.552645 3.817129,13.195526 3.256640,13.893414 
z"/>
<path fill="#22222F" opacity="1.000000" stroke="none" 
	d="
M9.765457,8.593794 
	C9.888415,8.241562 10.186550,8.102757 10.735205,7.952720 
	C10.637361,8.230064 10.288996,8.518642 9.765457,8.593794 
z"/>
<path fill="#151620" opacity="1.000000" stroke="none" 
	d="
M6.113900,11.993072 
	C5.809510,11.958939 5.984671,11.560605 6.003649,11.344229 
	C6.022626,11.127852 6.492302,10.998079 6.726876,10.932182 
	C6.971850,11.057592 6.982251,11.248899 7.011713,11.727762 
	C6.826612,12.019279 6.622451,12.023241 6.113900,11.993072 
z"/>
<path fill="#4A4A53" opacity="1.000000" stroke="none" 
	d="
M13.772312,5.141757 
	C14.046912,5.098470 14.027777,5.486909 14.052179,5.678889 
	C13.873609,5.907803 13.670634,5.944737 13.160593,6.030853 
	C13.068254,5.781705 13.282984,5.483375 13.772312,5.141757 
z"/>
<path fill="#15161F" opacity="1.000000" stroke="none" 
	d="
M173.174561,7.642946 
	C172.317978,7.692390 171.439896,7.681711 170.449661,7.314866 
	C170.979141,6.614888 171.620773,6.271075 172.501724,6.342629 
	C172.838165,7.019013 172.935303,7.280029 173.032425,7.541045 
	C173.032425,7.541045 173.153076,7.582823 173.174561,7.642946 
z"/>
<path fill="#3F3E4B" opacity="1.000000" stroke="none" 
	d="
M164.031464,4.664199 
	C163.492538,4.790374 162.906342,4.615080 162.144012,4.179305 
	C162.639999,4.066792 163.312103,4.214762 164.031464,4.664199 
z"/>
<path fill="#040505" opacity="1.000000" stroke="none" 
	d="
M175.945068,11.977052 
	C175.992538,12.151282 176.056747,12.341969 176.315704,12.764156 
	C175.722412,12.555614 174.934372,12.115568 174.308411,11.321814 
	C174.470505,10.968103 174.481552,10.980342 174.699081,11.218578 
	C175.280457,11.633020 175.644302,11.809226 176.008148,11.985432 
	C176.008148,11.985431 175.961807,11.993508 175.945068,11.977052 
z"/>
<path fill="#696C76" opacity="1.000000" stroke="none" 
	d="
M173.454987,7.527571 
	C172.935303,7.280029 172.838165,7.019013 172.761887,6.340753 
	C173.147690,6.453705 173.512634,6.983901 173.454987,7.527571 
z"/>
<path fill="#3F3E4B" opacity="1.000000" stroke="none" 
	d="
M175.942200,11.616442 
	C175.644302,11.809226 175.280457,11.633020 174.709076,11.221378 
	C174.959778,11.073111 175.418015,11.160281 175.942200,11.616442 
z"/>
<path fill="#525061" opacity="1.000000" stroke="none" 
	d="
M168.836395,7.689481 
	C168.815765,7.963282 168.475983,8.110875 168.018326,8.061514 
	C168.106064,7.764131 168.311661,7.663702 168.836395,7.689481 
z"/>
<path fill="#040505" opacity="1.000000" stroke="none" 
	d="
M174.035919,10.681890 
	C174.039047,10.689741 173.685867,10.709877 173.685867,10.709877 
	C173.685867,10.709877 173.791153,10.631557 173.912384,10.643393 
	C174.033600,10.655227 174.032806,10.674040 174.035919,10.681890 
z"/>
<path fill="#696C76" opacity="1.000000" stroke="none" 
	d="
M174.408051,9.263048 
	C173.909912,9.248113 173.713104,9.026860 173.608063,8.370711 
	C174.036331,8.309454 174.372864,8.683092 174.408051,9.263048 
z"/>
<path fill="#45455A" opacity="1.000000" stroke="none" 
	d="
M149.994522,19.170349 
	C148.901733,18.448669 147.808960,17.726988 146.358704,16.991650 
	C146.000854,16.478956 145.999847,15.979921 146.000183,15.480886 
	C146.004959,8.417472 151.766083,4.960223 158.460922,7.942502 
	C159.630463,8.463484 160.947159,8.654114 162.600403,8.996964 
	C165.898956,10.457815 168.792999,11.919022 171.842896,13.689613 
	C171.988953,17.442644 171.979141,20.886288 171.661591,24.572458 
	C165.281113,18.971502 158.375534,16.279396 149.994522,19.170349 
z"/>
<path fill="#333135" opacity="1.000000" stroke="none" 
	d="
M143.521667,8.487484 
	C143.531769,8.513097 143.511581,8.461870 143.521667,8.487484 
z"/>
<path fill="#151620" opacity="1.000000" stroke="none" 
	d="
M149.833984,19.458344 
	C158.375534,16.279396 165.281113,18.971502 171.643997,25.001236 
	C172.769623,26.684607 173.605103,28.181728 174.679535,29.905266 
	C174.048279,34.860325 173.178055,39.588963 172.156830,44.658546 
	C169.210419,47.575363 166.415039,50.151230 163.311020,52.865273 
	C161.860748,54.182079 160.719101,55.360718 159.337296,56.749004 
	C153.830276,51.869678 148.563400,46.780697 143.113129,41.416576 
	C143.974243,33.630436 144.076675,25.822483 149.833984,19.458344 
z"/>
<path fill="#D0D1A2" opacity="1.000000" stroke="none" 
	d="
M20.704828,5.541703 
	C20.210186,4.997351 19.715546,4.452999 18.667912,3.920076 
	C18.868320,3.268536 19.621723,2.605565 20.705666,2.006431 
	C21.036205,2.070268 21.061380,2.554417 20.699156,3.105165 
	C20.459562,4.284509 20.582195,4.913106 20.704828,5.541703 
z"/>
<path fill="#87888E" opacity="1.000000" stroke="none" 
	d="
M6.280300,9.066286 
	C5.994346,8.986167 5.970184,8.781098 5.943775,8.267010 
	C6.193154,7.662094 6.444778,7.366198 6.962544,7.246734 
	C6.999822,7.929223 6.770957,8.435280 6.280300,9.066286 
z"/>
<path fill="#676364" opacity="1.000000" stroke="none" 
	d="
M9.001126,62.489960 
	C9.215439,63.455555 9.438521,63.993877 9.735621,64.827209 
	C7.664098,64.466324 5.492758,63.824989 7.678082,60.975327 
	C7.942973,61.075710 7.974862,61.030445 8.059429,61.232327 
	C8.143997,61.434208 8.543423,61.660805 8.543423,61.660805 
	C8.543423,61.660805 8.746544,61.249527 8.746544,61.249527 
	C8.834328,61.520576 8.922112,61.791626 9.001126,62.489960 
z"/>
<path fill="#111115" opacity="1.000000" stroke="none" 
	d="
M5.968088,162.712982 
	C5.827217,162.995102 5.652010,162.992310 5.213499,162.991974 
	C4.860414,162.491501 4.770632,161.988556 4.680850,161.485626 
	C5.098483,161.799759 5.516117,162.113907 5.968088,162.712982 
z"/>
<path fill="#000000" opacity="1.000000" stroke="none" 
	d="
M8.615426,61.192886 
	C8.746544,61.249527 8.543423,61.660805 8.543423,61.660805 
	C8.543423,61.660805 8.143997,61.434208 8.032857,61.231583 
	C8.112413,61.048126 8.299944,61.083889 8.615426,61.192886 
z"/>
<path fill="#040505" opacity="1.000000" stroke="none" 
	d="
M176.941040,13.928223 
	C177.565369,14.173898 178.127960,14.789243 178.799957,15.694901 
	C178.232666,15.422773 177.556000,14.860333 176.941040,13.928223 
z"/>
<path fill="#3A3A4A" opacity="1.000000" stroke="none" 
	d="
M20.753899,5.612256 
	C20.582195,4.913106 20.459562,4.284509 20.686201,3.347220 
	C21.736300,2.995229 22.437130,2.951930 23.486540,2.861548 
	C25.579363,2.920543 27.323605,3.026619 29.494061,3.213130 
	C28.461782,3.883866 27.003292,4.474169 24.817726,5.077645 
	C23.288862,5.396886 22.487074,5.702953 21.685284,6.009020 
	C21.379583,5.931135 21.085478,5.822398 20.753899,5.612256 
z"/>
<path fill="#ECECF5" opacity="1.000000" stroke="none" 
	d="
M148.995453,61.677605 
	C148.412766,61.514240 147.827347,61.023930 147.118256,60.269478 
	C147.660614,60.453770 148.326675,60.902214 148.995453,61.677605 
z"/>
<path fill="#696C76" opacity="1.000000" stroke="none" 
	d="
M22.034836,6.003176 
	C22.487074,5.702953 23.288862,5.396886 24.419107,5.112806 
	C23.959837,5.422306 23.172113,5.709818 22.034836,6.003176 
z"/>
<path fill="#000000" opacity="1.000000" stroke="none" 
	d="
M136.046570,14.171175 
	C136.289154,13.845765 136.617752,13.738834 137.066788,13.383010 
	C137.492157,13.190357 137.712250,13.357989 137.905441,14.072404 
	C137.963364,14.507794 137.858017,14.988859 137.858017,14.988859 
	C137.492447,14.965775 137.126892,14.942692 136.488998,14.885643 
	C136.216675,14.851678 136.132599,14.389655 136.046570,14.171175 
z"/>
<path fill="#4A4A53" opacity="1.000000" stroke="none" 
	d="
M138.043549,14.921017 
	C137.858017,14.988859 137.963364,14.507794 138.000656,14.264483 
	C138.192535,14.207075 138.357773,14.386151 138.487350,14.588103 
	C138.502411,14.611566 138.319962,14.761744 138.043549,14.921017 
z"/>
<path fill="#292A32" opacity="1.000000" stroke="none" 
	d="
M42.723755,16.209415 
	C43.679203,16.043076 44.424294,16.043076 45.800285,16.043076 
	C44.984455,16.706705 44.542114,17.066521 43.971764,17.725018 
	C43.400299,17.474386 42.956848,16.925072 42.723755,16.209415 
z"/>
<path fill="#000000" opacity="1.000000" stroke="none" 
	d="
M46.036125,20.768089 
	C46.265427,20.496326 46.505463,20.537842 47.093746,20.699577 
	C47.125130,21.265926 46.808270,21.712049 46.491409,22.158173 
	C46.343227,21.799238 46.195045,21.440302 46.036125,20.768089 
z"/>
<path fill="#525062" opacity="1.000000" stroke="none" 
	d="
M37.959141,129.984818 
	C37.940762,125.847473 36.861412,121.356979 38.099373,117.637825 
	C42.099129,105.621529 48.094646,94.883888 60.741066,89.602119 
	C66.053177,87.383522 70.699295,87.465477 74.855667,92.769882 
	C75.337372,99.697998 75.677979,105.866287 76.018585,112.034576 
	C76.018585,112.034576 76.003029,111.996315 75.667084,112.008202 
	C74.208351,112.688194 73.085556,113.356300 71.703827,113.776703 
	C70.924370,111.986420 70.403854,110.443848 69.719505,108.628815 
	C68.412254,106.860954 67.268829,105.365570 66.108871,103.883240 
	C66.092331,103.896301 66.066154,103.927505 65.892624,103.623833 
	C63.454128,103.504875 61.189152,103.689590 58.632404,104.060852 
	C52.481079,111.975838 52.443840,113.713333 58.247261,119.068283 
	C60.641476,119.607849 62.818840,119.801529 64.957916,120.351418 
	C63.601051,123.159813 62.137001,125.546371 60.994728,128.078125 
	C58.742199,133.070648 54.699947,134.450485 49.570747,135.160721 
	C44.250164,135.897461 41.813606,131.675919 37.959141,129.984818 
z"/>
<path fill="#525061" opacity="1.000000" stroke="none" 
	d="
M141.104645,133.333466 
	C140.353729,133.924988 139.602798,134.516510 138.069946,135.063812 
	C123.348000,134.898376 119.365089,131.775360 117.405853,119.128525 
	C119.939056,119.004036 122.559273,119.627281 124.155899,118.623085 
	C129.613419,115.190590 129.222534,108.924164 123.628502,104.148369 
	C119.871819,100.941185 116.377968,101.288658 114.284203,105.696915 
	C112.902809,108.605316 112.615067,112.033157 111.837639,115.228424 
	C105.733650,113.728874 104.122505,111.765846 104.123169,105.801949 
	C104.123314,104.481407 104.157700,103.160767 104.184723,101.840340 
	C104.423546,90.170425 110.147461,86.177963 121.651794,90.408554 
	C126.482521,94.508263 130.833786,98.189049 135.185043,101.869835 
	C135.185043,101.869835 135.075455,101.916962 135.096252,102.239342 
	C137.691864,107.040016 140.266678,111.518318 142.841492,115.996613 
	C143.355850,117.727127 143.870209,119.457642 144.219681,121.986130 
	C143.653183,125.204895 143.251541,127.625694 142.500977,130.123474 
	C141.802933,131.244797 141.453796,132.289124 141.104645,133.333466 
z"/>
<path fill="#1B1C27" opacity="1.000000" stroke="none" 
	d="
M111.919624,115.490631 
	C112.615067,112.033157 112.902809,108.605316 114.284203,105.696915 
	C116.377968,101.288658 119.871819,100.941185 123.628502,104.148369 
	C129.222534,108.924164 129.613419,115.190590 124.155899,118.623085 
	C122.559273,119.627281 119.939056,119.004036 117.113297,118.969482 
	C115.304893,118.204338 114.171188,117.596436 113.037476,116.988541 
	C112.692184,116.576645 112.346893,116.164742 111.919624,115.490631 
z"/>
<path fill="#1A1B25" opacity="1.000000" stroke="none" 
	d="
M97.280273,159.734161 
	C92.108879,156.366119 87.321884,157.476898 82.028351,160.065475 
	C76.776085,162.633865 71.732376,159.909592 67.573257,152.532410 
	C74.785919,156.100754 81.177147,155.488052 88.148964,153.323135 
	C89.881989,152.639847 91.017525,152.288666 92.153069,151.937469 
	C93.556831,152.549164 94.960594,153.160843 96.680740,154.401413 
	C97.091499,156.598251 97.185890,158.166214 97.280273,159.734161 
M80.427849,158.482788 
	C80.427849,158.482788 80.517174,158.434845 80.427849,158.482788 
z"/>
<path fill="#4C4C58" opacity="1.000000" stroke="none" 
	d="
M37.704689,130.087006 
	C41.813606,131.675919 44.250164,135.897461 49.570747,135.160721 
	C54.699947,134.450485 58.742199,133.070648 60.994728,128.078125 
	C62.137001,125.546371 63.601051,123.159813 64.962448,119.961266 
	C64.977989,118.692665 64.950714,118.170418 65.098892,117.426994 
	C65.867859,116.731247 66.461388,116.256676 67.224281,115.991577 
	C67.903336,116.692093 68.413025,117.183144 68.922714,117.674194 
	C65.053619,123.524155 61.184528,129.374115 57.104301,135.474808 
	C50.758934,137.549423 44.666409,139.102234 39.417805,132.929794 
	C38.548298,131.911880 37.999268,131.050522 37.704689,130.087006 
z"/>
<path fill="#1B1C22" opacity="1.000000" stroke="none" 
	d="
M75.871994,142.138153 
	C74.978027,140.791107 74.084053,139.444077 73.190079,138.097031 
	C74.592712,137.375076 75.981926,136.059708 77.400162,136.027634 
	C86.489624,135.822083 95.588318,135.779938 104.676331,135.999893 
	C106.162552,136.035873 107.610924,137.635788 109.076782,138.512863 
	C108.355522,139.391464 107.634262,140.270081 106.464264,141.083008 
	C106.015526,141.017319 105.907356,140.910034 105.917786,140.503479 
	C105.026169,139.401489 104.135651,138.120361 103.220245,138.102341 
	C95.143738,137.943161 87.062355,138.057663 78.983444,137.981552 
	C76.019135,137.953644 75.855286,139.700958 76.049805,141.953735 
	C75.990242,142.014923 75.871994,142.138153 75.871994,142.138153 
z"/>
<path fill="#1B1C22" opacity="1.000000" stroke="none" 
	d="
M92.109268,151.570679 
	C91.017525,152.288666 89.881989,152.639847 88.384781,152.995178 
	C88.409126,149.558823 86.710350,147.691544 83.596542,146.482025 
	C81.044281,145.490631 78.692154,143.984024 76.061653,142.421967 
	C75.871994,142.138153 75.990242,142.014923 76.416603,141.996063 
	C81.533745,144.149231 86.224518,146.321243 90.295616,148.206314 
	C95.414124,145.814133 100.660744,143.362091 105.907356,140.910034 
	C105.907356,140.910034 106.015526,141.017319 106.069458,141.071106 
	C102.585808,143.333267 98.992386,145.459000 95.539001,147.792007 
	C94.216446,148.685486 93.213867,150.052597 92.109268,151.570679 
z"/>
<path fill="#4A4A53" opacity="1.000000" stroke="none" 
	d="
M112.944626,117.354401 
	C114.171188,117.596436 115.304893,118.204338 116.731155,118.971283 
	C119.365089,131.775360 123.348000,134.898376 137.763153,135.050003 
	C134.020462,139.159668 129.424438,136.784439 124.502182,135.807861 
	C120.344505,129.743149 116.598137,123.731697 112.944626,117.354401 
z"/>
<path fill="#2A2C31" opacity="1.000000" stroke="none" 
	d="
M97.542892,159.894775 
	C97.185890,158.166214 97.091499,156.598251 96.994308,154.560547 
	C98.123161,154.321289 99.254814,154.551804 100.777603,155.298004 
	C102.771538,156.950836 104.374336,158.088013 105.977142,159.225159 
	C103.253265,159.501907 100.529388,159.778656 97.542892,159.894775 
z"/>
<path fill="#4C4C58" opacity="1.000000" stroke="none" 
	d="
M76.384216,111.865738 
	C75.677979,105.866287 75.337372,99.697998 74.971222,93.072235 
	C79.964035,98.557861 78.492630,105.114555 76.384216,111.865738 
z"/>
<path fill="#51505B" opacity="1.000000" stroke="none" 
	d="
M135.068146,101.539734 
	C130.833786,98.189049 126.482521,94.508263 122.067825,90.502213 
	C127.826279,92.086914 131.999039,95.932129 135.068146,101.539734 
z"/>
<path fill="#51505B" opacity="1.000000" stroke="none" 
	d="
M142.818604,115.640686 
	C140.266678,111.518318 137.691864,107.040016 135.125916,102.187599 
	C137.688431,106.303902 140.242081,110.794334 142.818604,115.640686 
z"/>
<path fill="#1A1B25" opacity="1.000000" stroke="none" 
	d="
M69.175842,117.589371 
	C68.413025,117.183144 67.903336,116.692093 67.263840,115.626442 
	C66.797821,111.324623 66.461617,107.597404 66.125412,103.870186 
	C67.268829,105.365570 68.412254,106.860954 69.716286,109.069031 
	C69.387268,111.726166 68.897644,113.670624 68.430176,115.677414 
	C68.594826,115.869995 68.762978,115.950813 69.442368,116.057541 
	C70.251991,116.084846 70.576042,116.036827 70.900093,115.988815 
	C70.409714,116.494057 69.919334,116.999298 69.175842,117.589371 
z"/>
<path fill="#1A1B25" opacity="1.000000" stroke="none" 
	d="
M106.291580,159.162704 
	C104.374336,158.088013 102.771538,156.950836 101.089630,155.456543 
	C103.363708,154.841812 105.716888,154.584229 108.485184,154.774261 
	C108.950035,155.854477 108.999786,156.487091 109.049538,157.119690 
	C108.235031,157.779861 107.420525,158.440048 106.291580,159.162704 
z"/>
<path fill="#F0F0F5" opacity="1.000000" stroke="none" 
	d="
M142.849915,130.046494 
	C143.251541,127.625694 143.653183,125.204895 144.213593,122.380814 
	C147.726227,124.633293 145.228287,127.189285 143.721985,129.966507 
	C143.204483,130.162003 142.849915,130.046494 142.849915,130.046494 
z"/>
<path fill="#D8D8E5" opacity="1.000000" stroke="none" 
	d="
M66.883270,166.630722 
	C66.184425,167.464844 65.324669,168.028214 64.464912,168.591583 
	C63.977879,167.305054 63.490849,166.018539 63.006958,164.354187 
	C64.247520,164.770905 65.484940,165.565445 66.883270,166.630722 
z"/>
<path fill="#2A2C31" opacity="1.000000" stroke="none" 
	d="
M109.387161,157.023834 
	C108.999786,156.487091 108.950035,155.854477 108.833954,154.750565 
	C110.000397,153.666473 111.233170,153.053696 112.465935,152.440903 
	C112.933273,152.970001 113.400612,153.499100 113.867950,154.028198 
	C112.486893,154.994781 111.105835,155.961380 109.387161,157.023834 
z"/>
<path fill="#5B596A" opacity="1.000000" stroke="none" 
	d="
M68.408012,115.615082 
	C68.897644,113.670624 69.387268,111.726166 69.880119,109.341492 
	C70.403854,110.443848 70.924370,111.986420 71.738113,114.093567 
	C72.051033,114.869865 72.070724,115.081589 72.090424,115.293320 
	C71.865532,115.534897 71.640648,115.776474 71.157928,116.003433 
	C70.576042,116.036827 70.251991,116.084846 69.561432,115.873466 
	C68.934265,115.358009 68.671959,115.358345 68.408012,115.615082 
z"/>
<path fill="#4C4C58" opacity="1.000000" stroke="none" 
	d="
M72.396622,115.179878 
	C72.070724,115.081589 72.051033,114.869865 71.997055,114.341278 
	C73.085556,113.356300 74.208351,112.688194 75.684143,112.020111 
	C74.925713,113.035568 73.814270,114.051003 72.396622,115.179878 
z"/>
<path fill="#4A4A53" opacity="1.000000" stroke="none" 
	d="
M142.500992,130.123474 
	C142.849915,130.046494 143.204483,130.162003 143.390808,130.165314 
	C143.406784,130.469833 143.236450,130.771042 143.047638,131.333237 
	C142.542175,132.088760 142.055176,132.583298 141.336395,133.205643 
	C141.453796,132.289124 141.802933,131.244797 142.500992,130.123474 
z"/>
<path fill="#1B1D2A" opacity="1.000000" stroke="none" 
	d="
M66.108871,103.883240 
	C66.461617,107.597404 66.797821,111.324623 67.094475,115.416977 
	C66.461388,116.256676 65.867859,116.731247 64.720261,117.536667 
	C62.120930,118.152481 60.075668,118.437447 58.030407,118.722404 
	C52.443840,113.713333 52.481079,111.975838 58.861908,104.335365 
	C61.610840,104.258049 63.838497,104.092781 66.066154,103.927505 
	C66.066154,103.927505 66.092331,103.896301 66.108871,103.883240 
z"/>
<path fill="#1A1B25" opacity="1.000000" stroke="none" 
	d="
M65.892624,103.623833 
	C63.838497,104.092781 61.610840,104.258049 59.153679,104.148819 
	C61.189152,103.689590 63.454128,103.504875 65.892624,103.623833 
z"/>
<path fill="#5B596A" opacity="1.000000" stroke="none" 
	d="
M58.247261,119.068283 
	C60.075668,118.437447 62.120930,118.152481 64.544815,117.757843 
	C64.950714,118.170418 64.977989,118.692665 65.000732,119.605064 
	C62.818840,119.801529 60.641476,119.607849 58.247261,119.068283 
z"/>
<path fill="#37373C" opacity="1.000000" stroke="none" 
	d="
M80.472511,158.458817 
	C80.517174,158.434845 80.427849,158.482788 80.472511,158.458817 
z"/>
<path fill="#1A1B25" opacity="1.000000" stroke="none" 
	d="
M105.917786,140.503479 
	C100.660744,143.362091 95.414124,145.814133 90.295616,148.206314 
	C86.224518,146.321243 81.533745,144.149231 76.476166,141.934875 
	C75.855286,139.700958 76.019135,137.953644 78.983444,137.981552 
	C87.062355,138.057663 95.143738,137.943161 103.220245,138.102341 
	C104.135651,138.120361 105.026169,139.401489 105.917786,140.503479 
z"/>
<path fill="#1B1D2A" opacity="1.000000" stroke="none" 
	d="
M68.430176,115.677414 
	C68.671959,115.358345 68.934265,115.358009 69.075867,115.798141 
	C68.762978,115.950813 68.594826,115.869995 68.430176,115.677414 
z"/>
</svg>